<svg width="27" height="27" viewBox="0 0 27 27" fill="none" xmlns="http://www.w3.org/2000/svg">
<path d="M13.5 0.583374C10.9453 0.583374 8.44801 1.34092 6.32387 2.76023C4.19974 4.17953 2.54417 6.19683 1.56654 8.55705C0.58891 10.9173 0.333116 13.5144 0.831509 16.02C1.3299 18.5255 2.56009 20.8271 4.36652 22.6335C6.17295 24.4399 8.47448 25.6701 10.9801 26.1685C13.4857 26.6669 16.0828 26.4111 18.443 25.4335C20.8032 24.4559 22.8205 22.8003 24.2398 20.6762C25.6591 18.552 26.4167 16.0547 26.4167 13.5C26.4167 11.8038 26.0826 10.1242 25.4334 8.55705C24.7843 6.98992 23.8329 5.566 22.6334 4.36658C21.434 3.16715 20.0101 2.21572 18.443 1.5666C16.8759 0.917474 15.1962 0.583374 13.5 0.583374V0.583374ZM13.5 23.8334C11.4562 23.8334 9.4584 23.2273 7.75909 22.0919C6.05979 20.9565 4.73534 19.3426 3.95323 17.4544C3.17113 15.5663 2.96649 13.4886 3.3652 11.4841C3.76392 9.47964 4.74807 7.63841 6.19322 6.19327C7.63836 4.74813 9.47958 3.76397 11.4841 3.36526C13.4885 2.96655 15.5662 3.17118 17.4544 3.95329C19.3426 4.73539 20.9564 6.05984 22.0918 7.75915C23.2273 9.45846 23.8333 11.4563 23.8333 13.5C23.8333 16.2406 22.7446 18.8689 20.8068 20.8068C18.8689 22.7447 16.2406 23.8334 13.5 23.8334V23.8334Z" fill="#696D74"/>
<path d="M17.0004 9.99963C16.8803 9.87856 16.7375 9.78247 16.5801 9.71689C16.4227 9.65132 16.2538 9.61755 16.0833 9.61755C15.9128 9.61755 15.744 9.65132 15.5866 9.71689C15.4292 9.78247 15.2863 9.87856 15.1662 9.99963L13.5 11.6788L11.8337 9.99963C11.5905 9.7564 11.2606 9.61976 10.9166 9.61976C10.5727 9.61976 10.2428 9.7564 9.99957 9.99963C9.75634 10.2429 9.6197 10.5727 9.6197 10.9167C9.6197 11.2607 9.75634 11.5906 9.99957 11.8338L11.6787 13.5L9.99957 15.1663C9.8785 15.2864 9.78241 15.4292 9.71683 15.5866C9.65125 15.744 9.61749 15.9129 9.61749 16.0834C9.61749 16.2539 9.65125 16.4227 9.71683 16.5801C9.78241 16.7375 9.8785 16.8804 9.99957 17.0005C10.1196 17.1215 10.2625 17.2176 10.4199 17.2832C10.5773 17.3488 10.7461 17.3825 10.9166 17.3825C11.0872 17.3825 11.256 17.3488 11.4134 17.2832C11.5708 17.2176 11.7137 17.1215 11.8337 17.0005L13.5 15.3213L15.1662 17.0005C15.2863 17.1215 15.4292 17.2176 15.5866 17.2832C15.744 17.3488 15.9128 17.3825 16.0833 17.3825C16.2538 17.3825 16.4227 17.3488 16.5801 17.2832C16.7375 17.2176 16.8803 17.1215 17.0004 17.0005C17.1215 16.8804 17.2176 16.7375 17.2831 16.5801C17.3487 16.4227 17.3825 16.2539 17.3825 16.0834C17.3825 15.9129 17.3487 15.744 17.2831 15.5866C17.2176 15.4292 17.1215 15.2864 17.0004 15.1663L15.3212 13.5L17.0004 11.8338C17.1215 11.7137 17.2176 11.5709 17.2831 11.4135C17.3487 11.2561 17.3825 11.0872 17.3825 10.9167C17.3825 10.7462 17.3487 10.5774 17.2831 10.42C17.2176 10.2626 17.1215 10.1197 17.0004 9.99963V9.99963Z" fill="#696D74"/>
</svg>
