<svg width="20" height="20" viewBox="0 0 20 20" fill="none" xmlns="http://www.w3.org/2000/svg">
<path d="M16.75 0.5H3.25C1.73298 0.5 0.5 1.73298 0.5 3.25V16.75C0.5 18.267 1.73298 19.5 3.25 19.5H16.75C18.267 19.5 19.5 18.267 19.5 16.75V3.25C19.5 1.73298 18.267 0.5 16.75 0.5Z" fill="#1B7BDB" stroke="#FEFEFF"/>
<path d="M16.1875 10H13.375V7.75C13.375 7.129 13.879 7.1875 14.5 7.1875H15.625V4.375H13.375C11.5109 4.375 10 5.88588 10 7.75V10H7.75V12.8125H10V19H13.375V12.8125H15.0625L16.1875 10Z" fill="#FAFAFB"/>
</svg>
