<svg width="21" height="23" viewBox="0 0 21 23" fill="none" xmlns="http://www.w3.org/2000/svg">
<path fill-rule="evenodd" clip-rule="evenodd" d="M10.5 0C9.465 0 7.7355 0.380938 6.108 0.805C4.443 1.23625 2.76451 1.74656 1.77751 2.05562C1.36484 2.18622 0.998993 2.42573 0.721983 2.74663C0.444972 3.06753 0.268039 3.45681 0.211508 3.86975C-0.682491 10.3054 1.39201 15.0751 3.909 18.2304C4.97638 19.5801 6.24904 20.7688 7.6845 21.7566C8.2635 22.149 8.8005 22.4494 9.2565 22.655C9.6765 22.8447 10.128 23 10.5 23C10.872 23 11.322 22.8447 11.7435 22.655C12.2932 22.3989 12.8191 22.0984 13.3155 21.7566C14.751 20.7688 16.0237 19.5802 17.091 18.2304C19.608 15.0751 21.6825 10.3054 20.7885 3.86975C20.7321 3.45661 20.5552 3.06711 20.2782 2.74596C20.0012 2.42481 19.6353 2.18504 19.2225 2.05419C17.7897 1.60398 16.3458 1.18699 14.892 0.803563C13.2645 0.382375 11.535 0 10.5 0ZM10.5 7.1875C11.0314 7.18674 11.5458 7.36623 11.9524 7.69416C12.3589 8.0221 12.6311 8.47733 12.721 8.97922C12.8108 9.48111 12.7124 9.99727 12.4431 10.4363C12.1739 10.8753 11.7512 11.2088 11.25 11.3778L11.8275 14.2384C11.8485 14.3425 11.8453 14.4497 11.818 14.5524C11.7907 14.6551 11.74 14.7507 11.6696 14.8325C11.5992 14.9142 11.5109 14.98 11.4108 15.0252C11.3108 15.0704 11.2016 15.0938 11.091 15.0938H9.909C9.79854 15.0936 9.68949 15.07 9.58964 15.0247C9.48979 14.9795 9.40161 14.9136 9.33139 14.8319C9.26117 14.7502 9.21065 14.6546 9.18345 14.552C9.15624 14.4494 9.15301 14.3424 9.174 14.2384L9.75 11.3778C9.24875 11.2088 8.82608 10.8753 8.55685 10.4363C8.28762 9.99727 8.18921 9.48111 8.27904 8.97922C8.36887 8.47733 8.64114 8.0221 9.04765 7.69416C9.45415 7.36623 9.96864 7.18674 10.5 7.1875Z" fill="#FFFFFE"/>
</svg>
