<svg width="22" height="22" viewBox="0 0 22 22" fill="none" xmlns="http://www.w3.org/2000/svg">
<path d="M16.5 11C14.8503 11 13.3741 11.7296 12.3662 12.8799L8.87509 10.7313C9.05384 10.2407 9.16685 9.71873 9.16685 9.16652C9.16685 8.80575 9.11512 8.45867 9.03622 8.12099L13.6768 5.97959C14.3489 6.79964 15.3568 7.33315 16.5003 7.33315C18.5243 7.33315 20.1668 5.69143 20.1668 3.66658C20.1668 1.64173 18.524 0 16.5 0C14.4743 0 12.8334 1.64173 12.8334 3.66658C12.8334 3.89018 12.8612 4.10604 12.8986 4.31917L8.26343 6.45869C7.42828 5.32619 6.09705 4.58315 4.58342 4.58315C2.05176 4.58342 0 6.63491 0 9.16658C0 11.6982 2.05176 13.75 4.58342 13.75C5.90095 13.75 7.08098 13.186 7.91699 12.2944L11.4029 14.4394C11.1449 15.0766 11 15.7704 11 16.5C11 19.5382 13.4618 22 16.5 22C19.5365 22 22 19.5382 22 16.5C22 13.4618 19.5365 11 16.5 11Z" fill="#FFFFFE"/>
</svg>
