<svg width="41" height="40" viewBox="0 0 41 40" fill="none" xmlns="http://www.w3.org/2000/svg">
<path d="M40.2473 15.1507C39.9198 14.1462 39.0512 13.416 38.0047 13.2636L27.4031 11.7231L22.6659 2.15114C21.7279 0.25854 18.6278 0.25854 17.6898 2.15114L12.9526 11.7231L2.37615 13.2636C1.33256 13.416 0.463967 14.1488 0.136541 15.1536C-0.190885 16.1555 0.0811892 17.2574 0.838654 17.9953L8.50953 25.472L6.69996 36.0208C6.52241 37.0614 6.94989 38.116 7.80444 38.7377C8.66196 39.3563 9.79709 39.4372 10.7296 38.9459L20.1768 33.9642L29.6517 38.9459C30.057 39.1596 30.5011 39.2652 30.9422 39.2652C31.5166 39.2652 32.091 39.0847 32.5768 38.7381C33.4318 38.1135 33.8588 37.0618 33.6813 36.0212L31.8747 25.4725L39.5456 17.9957C40.303 17.26 40.5747 16.1555 40.2473 15.1507Z" fill="url(#paint0_linear_1_2859)"/>
<defs>
<linearGradient id="paint0_linear_1_2859" x1="20.1919" y1="0.731689" x2="20.1919" y2="39.2652" gradientUnits="userSpaceOnUse">
<stop stop-color="#FF65D4"/>
<stop offset="1" stop-color="#DB0F71"/>
</linearGradient>
</defs>
</svg>
