<svg width="23" height="20" viewBox="0 0 23 20" fill="none" xmlns="http://www.w3.org/2000/svg">
<path d="M4.46251 19.8672C4.25762 20.0344 4.03894 20.0437 3.80648 19.8951C3.57327 19.7465 3.50323 19.5422 3.59637 19.2821L5.69188 12.4553L0.243546 8.55433C0.020025 8.40573 -0.0496393 8.20139 0.0345538 7.94132C0.118002 7.68125 0.290113 7.55122 0.550888 7.55122H7.31241L9.46381 0.417964C9.50106 0.269355 9.5711 0.167186 9.67392 0.111457C9.77599 0.0557287 9.88291 0.0278644 9.99467 0.0278644C10.1064 0.0278644 10.2137 0.0557287 10.3165 0.111457C10.4186 0.167186 10.4883 0.269355 10.5255 0.417964L12.6769 7.55122H19.4384C19.6992 7.55122 19.8717 7.68125 19.9559 7.94132C20.0393 8.20139 19.9693 8.40573 19.7458 8.55433L14.2975 12.4553L16.393 19.2821C16.4861 19.5422 16.4164 19.7465 16.184 19.8951C15.9508 20.0437 15.7317 20.0344 15.5268 19.8672L9.99467 15.6876L4.46251 19.8672ZM20.1649 19.8672L18.5164 18.6133L16.868 13.347L20.3325 10.8949H22.428C22.6888 10.8949 22.8658 11.025 22.9589 11.285C23.052 11.5451 22.9868 11.7494 22.7633 11.898L19.4943 14.2386L21.059 19.2542C21.1521 19.5143 21.0776 19.7231 20.8355 19.8806C20.5933 20.0389 20.3698 20.0344 20.1649 19.8672ZM14.3533 5.32208L13.5151 2.47992L14.1298 0.417964C14.1671 0.269355 14.2367 0.162356 14.3388 0.0969679C14.4416 0.0323227 14.5489 0 14.6607 0C14.7724 0 14.8797 0.0371525 14.9825 0.111457C15.0846 0.185762 15.1543 0.287931 15.1915 0.417964L16.7003 5.32208H14.3533Z" fill="#FFFFFE"/>
</svg>
