<svg width="42" height="40" viewBox="0 0 42 40" fill="none" xmlns="http://www.w3.org/2000/svg">
<path d="M41.056 15.1508C40.7285 14.1464 39.86 13.4162 38.8134 13.2637L28.2119 11.7232L23.4746 2.15126C22.5366 0.258662 19.4365 0.258662 18.4985 2.15126L13.7613 11.7232L3.18486 13.2637C2.14127 13.4162 1.27268 14.1489 0.945256 15.1538C0.617831 16.1556 0.889906 17.2576 1.64737 17.9954L9.31824 25.4721L7.50867 36.0209C7.33112 37.0615 7.75861 38.1161 8.61315 38.7378C9.47067 39.3564 10.6058 39.4374 11.5383 38.946L20.9851 33.9644L30.46 38.946C30.8653 39.1597 31.3094 39.2653 31.7505 39.2653C32.3249 39.2653 32.8993 39.0848 33.3851 38.7382C34.2401 38.1136 34.6671 37.0619 34.4896 36.0213L32.683 25.4726L40.3539 17.9959C41.1117 17.2601 41.3834 16.1556 41.056 15.1508Z" fill="#939393"/>
</svg>
