<svg width="22" height="22" viewBox="0 0 22 22" fill="none" xmlns="http://www.w3.org/2000/svg">
<path d="M11 21.5C16.799 21.5 21.5 16.799 21.5 11C21.5 5.20101 16.799 0.5 11 0.5C5.20101 0.5 0.5 5.20101 0.5 11C0.5 16.799 5.20101 21.5 11 21.5Z" fill="#04A1EB" stroke="#FEFEFF"/>
<path d="M5.57581 10.7834L15.2175 7.06588C15.665 6.90422 16.0558 7.17505 15.9108 7.85172L15.9116 7.85088L14.27 15.5851C14.1483 16.1334 13.8225 16.2667 13.3666 16.0084L10.8666 14.1659L9.66081 15.3276C9.52747 15.4609 9.41497 15.5734 9.15664 15.5734L9.33414 13.0292L13.9675 8.84338C14.1691 8.66588 13.9225 8.56588 13.6566 8.74255L7.93081 12.3476L5.46247 11.5776C4.92664 11.4076 4.91497 11.0417 5.57581 10.7834Z" fill="#FEFEFF"/>
</svg>
