<svg width="22" height="23" viewBox="0 0 22 23" fill="none" xmlns="http://www.w3.org/2000/svg">
<path d="M5.42845 19.8957C7.04666 20.9149 8.9542 21.5 11.0025 21.5C16.7926 21.5 21.5 16.7897 21.5 11C21.5 5.21027 16.7926 0.5 11.0025 0.5H10.9975C5.20749 0.5 0.5 5.20898 0.5 11C0.5 13.2034 1.18162 15.2534 2.34889 16.9432L1.18346 20.4172L0.869519 21.3531L1.80975 21.0525L5.42845 19.8957Z" fill="#4DB853" stroke="#FEFEFF"/>
<path d="M16.8213 15.1212C16.58 15.8025 15.6225 16.3675 14.8588 16.5325C14.3363 16.6437 13.6538 16.7325 11.3563 15.78C8.4175 14.5625 6.525 11.5762 6.3775 11.3825C6.23625 11.1887 5.19 9.80123 5.19 8.36623C5.19 6.93123 5.91875 6.23248 6.2125 5.93248C6.45375 5.68623 6.8525 5.57373 7.235 5.57373C7.35875 5.57373 7.47 5.57998 7.57 5.58498C7.86375 5.59748 8.01125 5.61498 8.205 6.07873C8.44625 6.65998 9.03375 8.09498 9.10375 8.24248C9.175 8.38998 9.24625 8.58998 9.14625 8.78373C9.0525 8.98373 8.97 9.07248 8.8225 9.24248C8.675 9.41248 8.535 9.54248 8.3875 9.72498C8.2525 9.88373 8.1 10.0537 8.27 10.3475C8.44 10.635 9.0275 11.5937 9.8925 12.3637C11.0088 13.3575 11.9138 13.675 12.2375 13.81C12.4788 13.91 12.7663 13.8862 12.9425 13.6987C13.1663 13.4575 13.4425 13.0575 13.7238 12.6637C13.9238 12.3812 14.1763 12.3462 14.4413 12.4462C14.7113 12.54 16.14 13.2462 16.4338 13.3925C16.7275 13.54 16.9213 13.61 16.9925 13.7337C17.0625 13.8575 17.0625 14.4387 16.8213 15.1212Z" fill="#FAFAFB"/>
</svg>
