<svg width="35" height="36" viewBox="0 0 35 36" fill="none" xmlns="http://www.w3.org/2000/svg">
<path d="M5.72232 28.5687L9.53024 25.5207H27.1875C27.7568 25.5207 28.3027 25.2945 28.7053 24.892C29.1078 24.4894 29.334 23.9435 29.334 23.3742V9.42183C29.334 8.85254 29.1078 8.30656 28.7053 7.90401C28.3027 7.50146 27.7568 7.27531 27.1875 7.27531H7.86884C7.29954 7.27531 6.75357 7.50146 6.35102 7.90401C5.94847 8.30656 5.72232 8.85254 5.72232 9.42183V28.5687ZM10.2837 27.6672L5.31878 31.6383C5.16096 31.7643 4.9708 31.8432 4.77013 31.866C4.56947 31.8888 4.36644 31.8545 4.1844 31.767C4.00235 31.6796 3.84867 31.5426 3.74101 31.3717C3.63336 31.2008 3.57609 31.0031 3.57581 30.8011V9.42183C3.57581 8.28325 4.02811 7.1913 4.8332 6.3862C5.6383 5.5811 6.73025 5.1288 7.86884 5.1288H27.1875C28.3261 5.1288 29.418 5.5811 30.2231 6.3862C31.0282 7.1913 31.4805 8.28325 31.4805 9.42183V23.3742C31.4805 24.5128 31.0282 25.6047 30.2231 26.4098C29.418 27.2149 28.3261 27.6672 27.1875 27.6672H10.2837Z" fill="#F5F5F5"/>
<path d="M12.1619 18.0079H22.8945C23.61 18.0079 23.9677 18.3656 23.9677 19.0811C23.9677 19.7967 23.61 20.1544 22.8945 20.1544H12.1619C11.4464 20.1544 11.0886 19.7967 11.0886 19.0811C11.0886 18.3656 11.4464 18.0079 12.1619 18.0079ZM12.1619 11.5683H22.8945C23.61 11.5683 23.9677 11.9261 23.9677 12.6416C23.9677 13.3571 23.61 13.7149 22.8945 13.7149H12.1619C11.4464 13.7149 11.0886 13.3571 11.0886 12.6416C11.0886 11.9261 11.4464 11.5683 12.1619 11.5683Z" fill="#F5F5F5"/>
</svg>
